<?xml version="1.0" encoding="utf-8"?>
<!-- Generator: Adobe Illustrator 19.2.1, SVG Export Plug-In . SVG Version: 6.00 Build 0)  -->
<svg version="1.1" id="Layer_1" xmlns="http://www.w3.org/2000/svg" xmlns:xlink="http://www.w3.org/1999/xlink" x="0px" y="0px"
	 viewBox="0 0 106.2 107.6" style="enable-background:new 0 0 106.2 107.6;" xml:space="preserve">
<style type="text/css">
	.st0{fill:#FFFFFF;}
	.st1{fill:none;stroke:#FFFFFF;stroke-miterlimit:10;stroke-dasharray:3;}
</style>
<g>
	<circle class="st0" cx="40" cy="5" r="5"/>
	<circle class="st0" cx="55.3" cy="38.7" r="5"/>
	<circle class="st0" cx="35" cy="63.1" r="5"/>
	<circle class="st0" cx="67.8" cy="66.7" r="5"/>
	<circle class="st0" cx="83.3" cy="13.4" r="5"/>
	<circle class="st0" cx="101.2" cy="53.7" r="5"/>
	<circle class="st0" cx="83.3" cy="92.6" r="5"/>
	<circle class="st0" cx="40" cy="102.6" r="5"/>
	<circle class="st0" cx="7.7" cy="31.3" r="5"/>
	<circle class="st0" cx="5" cy="72.7" r="5"/>
	<polygon class="st1" points="40,5 83.3,13.4 101.2,53.7 83.3,92.6 40,102.6 5,72.7 7.7,31.3 	"/>
	<polyline class="st1" points="40,5 55.3,38.7 67.8,66.7 83.3,92.6 	"/>
	<polyline class="st1" points="83.3,13.4 55.3,38.7 35,63.1 40,102.6 	"/>
	<polyline class="st1" points="7.7,31.3 35,63.1 67.8,66.7 101.2,53.7 	"/>
	<line class="st1" x1="5" y1="72.7" x2="35" y2="63.1"/>
</g>
</svg>
