<?xml version="1.0" encoding="utf-8"?>
<!-- Generator: Adobe Illustrator 19.2.1, SVG Export Plug-In . SVG Version: 6.00 Build 0)  -->
<svg version="1.1" id="Layer_1" xmlns="http://www.w3.org/2000/svg" xmlns:xlink="http://www.w3.org/1999/xlink" x="0px" y="0px"
	 viewBox="0 0 64.3 28.1" style="enable-background:new 0 0 64.3 28.1;" xml:space="preserve">
<style type="text/css">
	.st0{fill:#FFFFFF;}
</style>
<g>
	<path class="st0" d="M12.5,26c0.1-0.7,0.1-1.4,0.1-2c0.7-0.2,2.7-0.5,4.9,0.1c3.1,0.8,14.8,2.1,26,2.3c9.4,0.2,17.5-2.9,19.9-5.9
		c0.9-1.1,0.9-2.1,0.7-2.7c-0.7-2.7-3.7-3-5.7-2.7c-1.1-2.9-4.5-2.8-11-2.4c-0.6,0-1.2,0.1-1.9,0.1c-4.9,0.3-9.2-1-11.8-2
		c1.7-0.4,3.9-0.9,6.1-1.5c2.4-0.7,3.9-2.5,3.9-4.9c0.1-1.9-0.9-3.7-2.2-4.1c-1.7-0.6-4.3,0.2-7.9,1.4c-1.1,0.3-2.2,0.7-3.5,1.1
		c-2.2,0.6-4.1,0.5-5.9,0.4c-2.3-0.2-4.5-0.3-6.7,1.1c-3,1.9-6.6,3.5-7.8,4C9.4,7.1,9.1,6.4,9,6.4C8.8,6,8.5,5.8,8.1,5.9L0.9,6.6
		c-0.4,0-0.7,0.3-0.8,0.6c-0.1,0.3-0.1,0.7,0.1,1c2.5,3.1,3.3,14.8,3.5,19c0,0.3,0.1,0.6,0.4,0.7C4.1,28,4.2,28,4.3,28
		c0.2,0.1,0.4,0.1,0.6,0.1l6.9-1.3C12.2,26.7,12.5,26.4,12.5,26z M18.7,5.8c1.7-1.1,3.4-1,5.5-0.8c1.9,0.1,4.1,0.3,6.6-0.5
		c1.3-0.4,2.4-0.8,3.5-1.1c3-1,5.5-1.8,6.6-1.4c0.4,0.1,0.9,1.1,0.9,2.2c0,0.9-0.4,2.4-2.5,3c-4.4,1.2-8.9,2.1-8.9,2.1
		c-0.4,0.1-0.7,0.4-0.8,0.8c-0.1,0.4,0.1,0.8,0.5,1c0.3,0.2,6.9,3.9,15.5,3.4c0.7,0,1.3-0.1,1.9-0.1c7.4-0.4,8.8-0.3,9.3,1.8
		c0,0.1,0.1,0.4-0.4,0.8c-1.8,1.8-9.8,3.4-19.2,1.3c-0.5-0.1-1.1,0.2-1.2,0.8c-0.1,0.5,0.2,1.1,0.8,1.2c9.9,2.1,18.4,0.7,21-1.9
		c0.5-0.5,0.8-1.1,0.9-1.6c1.1-0.1,3.1-0.2,3.5,1.3c0.1,0.3-0.2,0.7-0.4,0.9c-1.8,2.3-9.1,5.4-18.3,5.2c-11.1-0.2-22.6-1.5-25.6-2.3
		c-2.2-0.6-4.2-0.4-5.4-0.2c-0.1-5-1.1-9.2-2.1-11.9C11.7,9.5,15.5,7.8,18.7,5.8z M5.6,26C5.4,22.6,4.8,13,2.6,8.4l5-0.5
		c0.9,1.9,3.7,8.5,3,17.1L5.6,26z"/>
</g>
</svg>
