<?xml version="1.0" encoding="utf-8"?>
<!-- Generator: Adobe Illustrator 19.2.1, SVG Export Plug-In . SVG Version: 6.00 Build 0)  -->
<svg version="1.1" id="Layer_1" xmlns="http://www.w3.org/2000/svg" xmlns:xlink="http://www.w3.org/1999/xlink" x="0px" y="0px"
	 viewBox="0 0 112.6 51.5" style="enable-background:new 0 0 112.6 51.5;" xml:space="preserve">
<style type="text/css">
	.st0{fill:#FBD14B;}
</style>
<g>
	<g>
		<path class="st0" d="M18.7,50.3c-3.9,1.1-8.9,1.8-13.3-1.6C2.5,46.5,0.1,42.9,0,36.4C-0.2,19.2,16,4,25,1.1
			c4.5-1.4,8.1-1.5,10.8,0.5c2.2,1.6,3.5,3.6,4.2,5.7c0.7,2.2,0.6,4.4-0.6,7c-1,2.2-2.2,5.4-3.1,7.7c-0.2,0.6-0.8,1.2-1.7,0.4
			c-1.8-1.3-3.1-3.6-2.1-7.6c1-4,4-8.5,2.2-10.2c-2.6-2.6-15.6,4.2-23.2,15.8c-7.4,11.3-7.2,23.5-4,26.4c4.4,4.1,13.7-1.9,18.6-11.6
			c-2.6,0.5-5.1,1-7,1.1c-4,0.4-6.5-1.3-7.7-3.8c-0.4-0.8-0.2-1.3,0.8-1.3c6.2-0.1,12.3-2.1,17.2-2.2c4-0.1,6.2,1.7,7.3,4.1
			c0.4,0.9,0.2,1.4-0.8,1.3c-1.5-0.2-3.5-0.1-5.6,0.2C32.4,42,22.7,49.1,18.7,50.3z"/>
		<path class="st0" d="M37.6,39.3c2-5.8,7.3-15.3,10.2-19.4c0.7-1,1.3-1.2,1.9-0.5c1.2,1.3,1.8,4.7-0.1,8.7c-1.7,3.5-5,8.9-6.7,12.9
			c-1.9,4.6-1.8,7.7,0.8,7.6c3.6-0.2,8-5.4,10.4-10.9c0.4-0.7,1-0.6,1.3,0c0.6,1.3,0.4,3-0.6,5c-2.4,5-7.4,8.3-11.9,8.3
			C36.8,51,35.3,45.9,37.6,39.3z M55.4,18.5c-1,1.1-3.3,0.9-4.5-1.2c-1.3-2.2-0.9-4.6,0.4-5.9c1.3-1.4,3.6-0.4,4.6,1.8
			C57,15.2,56.4,17.4,55.4,18.5z"/>
		<path class="st0" d="M79.7,18.5c0.9-0.9,1.4-0.7,1.5,0.3c0.2,1.7-0.7,3.8-3.3,7c-4,5-11.3,12.7-18.9,24.8
			c-0.4,0.6-0.8,1.2-1.6,0.8c-3.1-1.5-4.2-3.1-4-7.3c0.3-5.6,2.5-17,5.2-25.3c0.3-0.9,1-1.2,1.6-0.6c2.6,2.2,3,5.2,1.9,10.1
			c-1.4,6.2-3,10.6-4.2,19.3C63.6,38.1,74.2,24.1,79.7,18.5z"/>
		<path class="st0" d="M87,48.8c6.6,0.3,12.5-6.1,15.9-11.3c0.4-0.6,1-0.6,1.4,0.1c0.3,0.6,0.1,2.9-1.4,5c-3.4,4.9-9.5,8.5-15.7,8.6
			c-10.1,0.2-13.7-9.8-8.5-20.1C84,20.6,92.1,16.5,96.1,18.8c2,1.2,3.4,2.4,4.7,4.2c1.4,1.9,0.8,6.8-2.6,10.9
			c-3.9,4.8-9.3,6.9-14.9,2.3C80.9,43.5,82.8,48.5,87,48.8z M93.6,30.4c2.6-3.4,4.3-7.5,3.2-8.4c-1.7-1.4-8.3,3.4-12.1,11
			c-0.2,0.5-0.5,1-0.6,1.4C88.1,36.8,91.3,33.4,93.6,30.4z"/>
		<path class="st0" d="M111,43.6c1.6,0.6,2.1,2.6,1.2,4.8c-0.9,2.1-3,3.4-4.6,2.8s-2.1-2.9-1.2-4.8C107.4,44.2,109.4,43,111,43.6z"
			/>
	</g>
</g>
</svg>
