<?xml version="1.0" encoding="utf-8"?>
<!-- Generator: Adobe Illustrator 19.2.1, SVG Export Plug-In . SVG Version: 6.00 Build 0)  -->
<svg version="1.1" id="Layer_1" xmlns="http://www.w3.org/2000/svg" xmlns:xlink="http://www.w3.org/1999/xlink" x="0px" y="0px"
	 viewBox="0 0 22 22" style="enable-background:new 0 0 22 22;" xml:space="preserve">
<style type="text/css">
	.st0{fill:#FFFFFF;}
</style>
<g>
	<title></title>
	<desc></desc>
	<g id="miu_27_">
		<g id="Artboard-1_27_" transform="translate(-323.000000, -659.000000)">
			<g id="slice_27_" transform="translate(215.000000, 119.000000)">
			</g>
			<path id="circle-social-facebook-glyph" class="st0" d="M237,681c6.1,0,11-4.9,11-11s-4.9-11-11-11s-11,4.9-11,11
				S231,681,237,681z M235.4,676.3V670h-1.3v-2.1h1.3v-1.3c0-1.7,0.5-3,2.4-3h2.2v2.1h-1.6c-0.8,0-1,0.5-1,1.1v1.1h2.4l-0.3,2.1
				h-2.1v6.3H235.4z"/>
		</g>
	</g>
</g>
<g>
	<title></title>
	<desc></desc>
	<g id="miu_28_">
		<g id="Artboard-1_28_" transform="translate(-899.000000, -659.000000)">
			<g id="slice_28_" transform="translate(215.000000, 119.000000)">
			</g>
			<path id="circle-social-linkedin-glyph" class="st0" d="M910,681c6.1,0,11-4.9,11-11s-4.9-11-11-11s-11,4.9-11,11
				S903.9,681,910,681z M916,674h-2.4v-3.5c0-0.9-0.4-1.5-1.2-1.5c-0.6,0-1,0.4-1.2,0.8c-0.1,0.1-0.1,0.4-0.1,0.6v3.7h-2.4
				c0,0,0-6.2,0-6.8h2.4v1.1c0.1-0.5,0.9-1.1,2.1-1.1c1.5,0,2.7,1,2.7,3.1V674z M906.3,666.4L906.3,666.4c-0.8,0-1.3-0.5-1.3-1.2
				c0-0.7,0.5-1.2,1.3-1.2c0.8,0,1.3,0.5,1.3,1.2C907.6,665.8,907.1,666.4,906.3,666.4z M905.3,667.2h2.1v6.8h-2.1V667.2z"/>
		</g>
	</g>
</g>
<g>
	<title></title>
	<desc></desc>
	<g id="miu_29_">
		<g id="Artboard-1_29_" transform="translate(-251.000000, -659.000000)">
			<g id="slice_29_" transform="translate(215.000000, 119.000000)">
			</g>
			<path class="st0" d="M213.4,659c-6.1,0-11,4.9-11,11s4.9,11,11,11s11-4.9,11-11S219.5,659,213.4,659z M218.1,667.5
				c0,0.1,0,0.2,0,0.3c0,3.4-2.4,7.3-6.9,7.3c-1.4,0-2.7-0.4-3.7-1.2c0.2,0,0.4,0,0.6,0c1.1,0,2.2-0.4,3-1.1c-1.1,0-2-0.8-2.3-1.8
				c0.1,0,0.3,0,0.5,0c0.2,0,0.4,0,0.6-0.1c-1.1-0.2-1.9-1.3-1.9-2.6c0,0,0,0,0,0c0.3,0.2,0.7,0.3,1.1,0.3c-0.7-0.5-1.1-1.3-1.1-2.2
				c0-0.5,0.1-0.9,0.3-1.3c1.2,1.6,3,2.6,5,2.8c0-0.2-0.1-0.4-0.1-0.6c0-1.4,1.1-2.6,2.4-2.5c0.7,0,1.3,0.3,1.8,0.8
				c0.6-0.1,1.1-0.3,1.5-0.6c-0.2,0.6-0.6,1.1-1.1,1.4c0.5-0.1,1-0.2,1.4-0.4C219,666.7,218.6,667.1,218.1,667.5z"/>
		</g>
	</g>
</g>
</svg>
