<?xml version="1.0" encoding="utf-8"?>
<!-- Generator: Adobe Illustrator 19.2.1, SVG Export Plug-In . SVG Version: 6.00 Build 0)  -->
<svg version="1.1" id="Layer_1" xmlns="http://www.w3.org/2000/svg" xmlns:xlink="http://www.w3.org/1999/xlink" x="0px" y="0px"
	 viewBox="0 0 78.1 132.6" style="enable-background:new 0 0 78.1 132.6;" xml:space="preserve">
<style type="text/css">
	.st0{fill:none;stroke:#FFFFFF;stroke-width:2;stroke-miterlimit:10;}
	.st1{fill:none;stroke:#FFFFFF;stroke-miterlimit:10;stroke-dasharray:3;}
	.st2{fill:none;stroke:#FFFFFF;stroke-width:3;stroke-linecap:round;stroke-miterlimit:10;}
	.st3{fill:none;stroke:#FFFFFF;stroke-linecap:round;stroke-miterlimit:10;stroke-dasharray:3;}
	.st4{fill:#FFFFFF;}
</style>
<g>
	<circle class="st0" cx="39.1" cy="39.1" r="33.7"/>
	<ellipse transform="matrix(0.7071 -0.7071 0.7071 0.7071 -16.1756 39.0514)" class="st0" cx="39.1" cy="39.1" rx="9.9" ry="9.9"/>
	<circle class="st1" cx="39.1" cy="39.1" r="38.6"/>
	<line class="st2" x1="39.3" y1="73" x2="39.3" y2="121.4"/>
	<line class="st1" x1="15.2" y1="15.2" x2="32.1" y2="32.1"/>
	<line class="st1" x1="46" y1="46" x2="62.9" y2="62.9"/>
	<line class="st3" x1="46" y1="32.1" x2="62.9" y2="15.2"/>
	<line class="st3" x1="32.1" y1="46" x2="15.2" y2="62.9"/>
	<path class="st4" d="M39.1,132.6L39.1,132.6c-3.8,0-7-3.1-7-7V95c0-3.8,3.1-7,7-7h0c3.8,0,7,3.1,7,7v30.6
		C46,129.5,42.9,132.6,39.1,132.6z"/>
</g>
</svg>
