<?xml version="1.0" encoding="utf-8"?>
<!-- Generator: Adobe Illustrator 19.2.1, SVG Export Plug-In . SVG Version: 6.00 Build 0)  -->
<svg version="1.1" id="Layer_1" xmlns="http://www.w3.org/2000/svg" xmlns:xlink="http://www.w3.org/1999/xlink" x="0px" y="0px"
	 viewBox="0 0 436 290.7" style="enable-background:new 0 0 436 290.7;" xml:space="preserve">
<style type="text/css">
	.st0{fill:#FFFFFF;}
</style>
<path class="st0" d="M163.4,145.4c0,30.1,24.4,54.5,54.5,54.5c30.1,0,54.5-24.4,54.5-54.5v-0.5c-5.8,5.9-13.8,9.5-22.7,9.5
	c-17.5,0-31.8-14.3-31.8-31.8c0-12.6,7.4-23.6,18.1-28.7c-5.6-2-11.7-3.1-18.1-3.1C187.9,90.9,163.4,115.3,163.4,145.4z
	 M423.8,114.4C390,71.4,307.7,0,218,0c-89.8,0-172.2,71.4-206,114.4c-7.6,9.8-11.8,20.4-12.1,31c0.3,10.5,4.5,21.2,12.1,31
	c33.8,43,116.1,114.4,205.9,114.4S390,219.3,423.8,176.4c7.7-9.8,11.9-20.4,12.2-31C435.7,134.8,431.6,124.2,423.8,114.4z
	 M218,236.2c-50.1,0-90.9-40.7-90.9-90.9c0-50.2,40.7-90.9,90.9-90.9c50.1,0,90.9,40.7,90.9,90.9C308.8,195.5,268.1,236.2,218,236.2
	z"/>
</svg>
